<svg width="32" height="32" viewBox="0 0 32 32" fill="none" xmlns="http://www.w3.org/2000/svg">
<g clip-path="url(#clip0_62_504)">
<path d="M32 4.33733C31.9757 5.97613 31.8303 7.61076 31.5648 9.22739C31.5072 9.61105 31.4368 9.98821 31.3664 10.3589C29.8218 9.25302 28.1655 8.31783 26.4256 7.56919C24.8563 6.88989 23.225 6.36932 21.5552 6.01504C21.45 5.98647 21.3431 5.96475 21.2352 5.95001C19.5496 5.60474 17.8347 5.42832 16.1152 5.42329H15.9616C14.2421 5.42832 12.5272 5.60474 10.8416 5.95001C10.7337 5.96475 10.6268 5.98647 10.5216 6.01504C8.85184 6.36932 7.2205 6.88989 5.6512 7.56919C3.88691 8.31324 2.20678 9.24854 0.64 10.3589C0.5696 9.98821 0.4992 9.61105 0.4416 9.22739C0.173989 7.61092 0.0263727 5.97629 0 4.33733C1.59768 3.39719 3.27214 2.59874 5.0048 1.95082L5.3952 1.80776C6.949 1.24947 8.54312 0.814645 10.1632 0.507214C10.4128 0.455192 10.6688 0.416176 10.9248 0.377159C12.4538 0.135641 13.9983 0.00957638 15.5456 0L16.4416 0C17.9896 0.0181814 19.5341 0.152941 21.0624 0.40317C21.3184 0.442187 21.5744 0.481203 21.824 0.533225C23.4441 0.840656 25.0382 1.27548 26.592 1.83377L26.9824 1.97683C28.7186 2.6157 30.3973 3.40545 32 4.33733Z" fill="#4F7BD8"/>
<path d="M25.1265 12.9209C24.5882 14.4582 23.9134 15.9426 23.1105 17.3558L22.8417 17.8175C21.1405 16.9984 19.3092 16.4941 17.4337 16.3283C16.9574 16.2785 16.4789 16.2546 16.0001 16.2568C15.5201 16.2568 15.0401 16.2568 14.5665 16.3218C12.6885 16.4889 10.8549 16.9954 9.1521 17.8175C9.98189 19.216 10.9352 20.535 12.0001 21.7581C12.1537 21.9402 12.3137 22.1158 12.4737 22.2914C13.5518 23.4793 14.732 24.5674 16.0001 25.5427C17.5236 26.7035 19.165 27.6954 20.8961 28.5015C20.6465 28.7161 20.4033 28.9242 20.1473 29.1517C18.8419 30.2121 17.4551 31.1646 16.0001 31.9999C14.5435 31.15 13.1566 30.1823 11.8529 29.1062C11.5969 28.8981 11.3537 28.6901 11.1041 28.456C10.0009 27.4954 8.96183 26.4613 7.99369 25.3606C7.68649 25.0095 7.35369 24.6518 7.09769 24.2877C6.25094 23.2258 5.47277 22.1094 4.76809 20.9453C4.49289 20.5031 4.23049 20.0479 3.98089 19.5862C3.33827 18.4047 2.76759 17.1842 2.27209 15.9317C5.0473 13.5585 8.37425 11.9466 11.9361 11.2497C12.7522 11.087 13.5771 10.9741 14.4065 10.9116C14.9313 10.8725 15.4625 10.853 15.9937 10.853C16.5249 10.853 17.0561 10.853 17.5809 10.9116C20.1962 11.1142 22.7531 11.7995 25.1265 12.9339V12.9209Z" fill="#4F7BD8"/>
</g>
<defs>
<clipPath id="clip0_62_504">
<rect width="32" height="32" fill="white"/>
</clipPath>
</defs>
</svg>
